Coordinates
version=1
nRows=22
nColumns=24
inDegrees=yes

Units are S.I. units (second, meters, Newtons, ...)
Angles are in degrees.

endheader
time	pelvis_tilt	pelvis_list	pelvis_rotation	pelvis_tx	pelvis_ty	pelvis_tz	hip_flexion_r	hip_adduction_r	hip_rotation_r	knee_angle_r	ankle_angle_r	subtalar_angle_r	mtp_angle_r	hip_flexion_l	hip_adduction_l	hip_rotation_l	knee_angle_l	ankle_angle_l	subtalar_angle_l	mtp_angle_l	lumbar_extension	lumbar_bending	lumbar_rotation
      1.26750000	     -0.82795349	     -4.06940005	     -7.53625572	      0.00042630	      0.97071107	      0.34540194	    -19.67774388	      5.72600829	      4.37004008	     -6.63738153	      7.64903785	     -1.15854042	      6.10166946	     25.59840749	     -4.47469762	     -6.48904693	      0.39443368	      5.74006296	     -1.58173276	      2.73511845	     -0.37012776	      8.23081333	     10.81357522
      1.27166667	     -0.89507323	     -3.97833810	     -7.60458591	      0.00644813	      0.96993603	      0.34512496	    -19.78223211	      5.53335453	      4.23481363	     -6.94102477	      7.51478568	     -0.91940068	      6.56676939	     25.67105776	     -4.37847327	     -6.50303366	      0.19261409	      5.59579797	     -1.93306941	      2.75526619	     -0.22433343	      8.14802580	     10.86045490
      1.27583333	     -0.91650736	     -3.87963441	     -7.68047750	      0.01250843	      0.96927527	      0.34489335	    -19.95886908	      5.33396928	      4.23241308	     -7.20000418	      7.34426508	     -0.93680162	      6.66214222	     25.71881330	     -4.28321108	     -6.59625498	     -0.12708685	      5.53402449	     -2.12607042	      2.76027215	     -0.14139096	      8.01177176	     10.87694433
      1.28000000	     -0.98171661	     -3.75878965	     -7.73755372	      0.01861020	      0.96856394	      0.34458599	    -20.04209715	      5.10847115	      4.04335646	     -7.52167612	      7.08259475	     -0.68638966	     11.64890541	     25.81669012	     -4.15564979	     -6.58883102	     -0.48822634	      5.30691988	     -2.55026253	      3.28988399	     -0.00168474	      7.88294952	     10.94827232
      1.28416667	     -1.01239750	     -3.63289984	     -7.79264157	      0.02477308	      0.96795865	      0.34432138	    -20.20306591	      4.88955649	      4.02162718	     -7.77825613	      6.84175959	     -0.75114831	     11.65666387	     25.90312107	     -4.02820809	     -6.66825912	     -0.95873572	      5.15501819	     -2.83801138	      3.28664733	      0.10879564	      7.74095407	     10.98079242
      1.28833333	     -1.10283323	     -3.51457039	     -7.83117717	      0.03093821	      0.96730273	      0.34401647	    -20.28007845	      4.69292064	      3.97897960	     -8.06414628	      6.54391863	     -0.70654270	     11.74316667	     26.02942918	     -3.89618829	     -6.52741217	     -1.41070408	      4.81701220	     -3.47084920	      3.30231262	      0.28548096	      7.59898643	     11.07763453
      1.29250000	     -1.17543241	     -3.36809877	     -7.86675648	      0.03717780	      0.96671520	      0.34370541	    -20.36430860	      4.46459249	      3.90957365	     -8.36858272	      6.25293071	     -0.70293810	     11.85268953	     26.16390395	     -3.73816217	     -6.50906631	     -1.95674881	      4.50732817	     -3.97752363	      3.32948541	      0.47120149	      7.43182280	     11.11402971
      1.29666667	     -1.25562772	     -3.21599885	     -7.89655010	      0.04344637	      0.96615244	      0.34337867	    -20.42991467	      4.23541490	      3.84977726	     -8.68651098	      5.92667965	     -0.71535909	     11.99772073	     26.30995503	     -3.57045224	     -6.45997471	     -2.54167715	      4.17144089	     -4.51990222	      3.37053342	      0.65705254	      7.25826280	     11.14960037
      1.30083333	     -1.31838586	     -3.03429278	     -7.94344687	      0.04975403	      0.96566825	      0.34308620	    -20.48844394	      3.97041545	      3.79730093	     -9.04690439	      5.58149123	     -0.80209877	     12.07824177	     26.44581843	     -3.38427688	     -6.49998243	     -3.17783381	      3.87847201	     -4.92565127	      3.39254203	      0.82566873	      7.03174091	     11.16873584
      1.30500000	     -1.40045469	     -2.85262468	     -7.92410539	      0.05608879	      0.96515226	      0.34264164	    -20.50606754	      3.71550655	      3.57172821	     -9.42452432	      5.17202802	     -0.65761100	     15.53778086	     26.60003151	     -3.15253491	     -6.33394243	     -3.80378046	      3.40339979	     -5.72299388	      4.50576396	      1.01355097	      6.82765596	     11.18632181
      1.30916667	     -1.52636742	     -2.68217511	     -7.94870783	      0.06245893	      0.96468923	      0.34230142	    -20.50199768	      3.48783470	      3.61264477	     -9.76040580	      4.73306533	     -0.86735184	     15.59295655	     26.80610981	     -2.96803064	     -6.30346698	     -4.48124626	      2.97247332	     -6.22709654	      4.50165323	      1.28436433	      6.65117405	     11.21760087
      1.31333333	     -1.63422619	     -2.49306610	     -7.94563694	      0.06885411	      0.96428095	      0.34190867	    -20.48924959	      3.24493069	      3.57576806	    -10.13900752	      4.27292179	     -1.02448943	     15.69364248	     26.99335391	     -2.74470433	     -6.22731829	     -5.16907777	      2.52597642	     -6.80587647	      4.51190747	      1.52059104	      6.43841757	     11.22914115
      1.31750000	     -1.73964848	     -2.28625575	     -7.93625863	      0.07527512	      0.96391728	      0.34149218	    -20.45591412	      2.98444486	      3.52105626	    -10.55013152	      3.77261258	     -1.16892267	     15.84210967	     27.17496261	     -2.49763821	     -6.14690713	     -5.86021928	      2.06482264	     -7.38112563	      4.53621127	      1.75215051	      6.20576277	     11.23381043
      1.32166667	     -1.85268800	     -2.07922589	     -7.91172751	      0.08172775	      0.96359997	      0.34105843	    -20.40038942	      2.73366908	      3.46515210	    -10.98055852	      3.23668322	     -1.32609540	     16.00883833	     27.37034931	     -2.24546451	     -6.07772007	     -6.57498831	      1.60063158	     -7.90181845	      4.56632026	      2.01717600	      5.96639017	     11.23555740
      1.32583333	     -1.97094168	     -1.85913840	     -7.88116080	      0.08818553	      0.96332708	      0.34059919	    -20.31250005	      2.47300686	      3.40868001	    -11.44808972	      2.65619180	     -1.49967481	     16.21396565	     27.56484590	     -1.97408187	     -5.99601919	     -7.28201136	      1.12994956	     -8.42711585	      4.60606534	      2.28031998	      5.71488864	     11.23355574
      1.33000000	     -2.08750128	     -1.63664864	     -7.83974283	      0.09465361	      0.96311143	      0.34011433	    -20.20380692	      2.21544482	      3.35339704	    -11.94784035	      2.03706323	     -1.69281774	     16.47595859	     27.75471298	     -1.69302507	     -5.90212966	     -7.99244317	      0.66761138	     -8.94189613	      4.65714694	      2.53890632	      5.46046670	     11.22319937
      1.33416667	     -2.18620677	     -1.40519385	     -7.79017344	      0.10113352	      0.96296600	      0.33961233	    -20.09126220	      1.94991219	      3.29181674	    -12.47806899	      1.36690431	     -1.89524958	     16.80202140	     27.91992456	     -1.39601831	     -5.81394552	     -8.69760442	      0.21863033	     -9.42290849	      4.71988223	      2.78420153	      5.19409166	     11.21024565
      1.33833333	     -2.24872402	     -1.14248203	     -7.75914836	      0.10763083	      0.96293066	      0.33913343	    -19.96470684	      1.64050355	      3.21040312	    -13.09901780	      0.70172239	     -2.12900349	     16.93767082	     28.03766292	     -1.08045469	     -5.83508721	     -9.39871704	     -0.12233288	     -9.67662089	      4.74306994	      2.98077346	      4.87686152	     11.20651554
      1.34250000	     -2.33592184	     -0.88108102	     -7.64928626	      0.11413292	      0.96287295	      0.33847176	    -19.80478689	      1.34676863	      3.00561583	    -13.69894838	     -0.13800028	     -2.27367443	     23.18999435	     28.16838258	     -0.70451679	     -5.60864980	    -10.05561811	     -0.58593812	    -10.31151360	      5.84855477	      3.19751688	      4.58496668	     11.19030077
      1.34666667	     -2.44616359	     -0.62513298	     -7.61550464	      0.12061834	      0.96289420	      0.33797934	    -19.59198671	      1.06440334	      3.03530373	    -14.35497242	     -0.90985364	     -2.55771916	     23.21742983	     28.33342477	     -0.40196277	     -5.64455443	    -10.76194687	     -0.93993412	    -10.51296477	      5.83556895	      3.44594027	      4.29621962	     11.18198468
      1.35083333	     -2.55550787	     -0.39863206	     -7.53088191	      0.12707185	      0.96294268	      0.33740233	    -19.35670142	      0.82967425	      3.01728033	    -15.04849282	     -1.75964653	     -2.83880173	     23.30675819	     28.49697791	     -0.09477779	     -5.54903071	    -11.46830391	     -1.27536354	    -10.86988559	      5.82105178	      3.70455925	      4.03425801	     11.17289661
      1.35500000	     -2.62096973	     -0.12271294	     -7.45777176	      0.13355115	      0.96309801	      0.33682529	    -19.12301786	      0.53042610	      2.96969683	    -15.81020302	     -2.61748920	     -3.09824848	     23.37445371	     28.58337418	      0.26062946	     -5.50612848	    -12.11780172	     -1.53484768	    -11.07075433	      5.81236452	      3.89990684	      3.70661499	     11.16677701
